#N canvas 373 22 962 720 10;
#X obj 722 434 pack s f;
#X msg 722 459 open \$1 \$2;
#X floatatom 814 384 5 0 0 0 - - -;
#N canvas 160 22 740 663 select_alphabet 0;
#X obj -483 575 outlet;
#X obj -199 -3 bng 15 250 50 0 empty empty empty 17 7 0 10 -262144
-1 -1;
#X obj -198 -28 inlet;
#X msg -441 265 A.jpeg;
#X msg -427 288 B.jpeg;
#X msg -409 313 C.jpeg;
#X obj -160 50 t f f;
#X obj -128 81 outlet;
#X obj -199 21 Uzi 26;
#X text -139 19 <---1〜26の数字を順番に出力。;
#X obj -160 108 sel 1 2 3 4 5 6 7 8 9 10 11 12 13 14 15 16 17 18 19
20 21 22 23 24 25 26;
#X msg -383 344 D.jpeg;
#X msg -369 367 E.jpeg;
#X msg -351 392 F.jpeg;
#X msg -246 318 G.jpeg;
#X msg -232 341 H.jpeg;
#X msg -214 366 I.jpeg;
#X msg -188 397 J.jpeg;
#X msg -174 420 K.jpeg;
#X msg -156 445 L.jpeg;
#X msg -108 305 M.jpeg;
#X msg -94 328 N.jpeg;
#X msg -76 353 O.jpeg;
#X msg -50 384 P.jpeg;
#X msg -36 407 Q.jpeg;
#X msg -18 432 R.jpeg;
#X msg 29 306 S.jpeg;
#X msg 43 329 T.jpeg;
#X msg 61 354 U.jpeg;
#X msg 87 385 V.jpeg;
#X msg 101 408 W.jpeg;
#X msg 119 433 X.jpeg;
#X msg 148 318 Y.jpeg;
#X msg 166 343 Z.jpeg;
#X connect 1 0 8 0;
#X connect 2 0 1 0;
#X connect 3 0 0 0;
#X connect 4 0 0 0;
#X connect 5 0 0 0;
#X connect 6 0 10 0;
#X connect 6 1 7 0;
#X connect 8 2 6 0;
#X connect 10 0 3 0;
#X connect 10 1 4 0;
#X connect 10 2 5 0;
#X connect 10 3 11 0;
#X connect 10 4 12 0;
#X connect 10 5 13 0;
#X connect 10 6 14 0;
#X connect 10 7 15 0;
#X connect 10 8 16 0;
#X connect 10 9 17 0;
#X connect 10 10 18 0;
#X connect 10 11 19 0;
#X connect 10 12 20 0;
#X connect 10 13 21 0;
#X connect 10 14 22 0;
#X connect 10 15 23 0;
#X connect 10 16 24 0;
#X connect 10 17 25 0;
#X connect 10 18 26 0;
#X connect 10 19 27 0;
#X connect 10 20 28 0;
#X connect 10 21 29 0;
#X connect 10 22 30 0;
#X connect 10 23 31 0;
#X connect 10 24 32 0;
#X connect 10 25 33 0;
#X connect 11 0 0 0;
#X connect 12 0 0 0;
#X connect 13 0 0 0;
#X connect 14 0 0 0;
#X connect 15 0 0 0;
#X connect 16 0 0 0;
#X connect 17 0 0 0;
#X connect 18 0 0 0;
#X connect 19 0 0 0;
#X connect 20 0 0 0;
#X connect 21 0 0 0;
#X connect 22 0 0 0;
#X connect 23 0 0 0;
#X connect 24 0 0 0;
#X connect 25 0 0 0;
#X connect 26 0 0 0;
#X connect 27 0 0 0;
#X connect 28 0 0 0;
#X connect 29 0 0 0;
#X connect 30 0 0 0;
#X connect 31 0 0 0;
#X connect 32 0 0 0;
#X connect 33 0 0 0;
#X restore 722 289 pd select_alphabet;
#X obj 722 265 bng 15 250 50 0 empty empty empty 17 7 0 10 -262144
-1 -1;
#X obj 722 318 t b a;
#X obj 722 411 symbol;
#X msg 722 349 ./Alphabet/;
#X obj 722 384 sprintf %s%s;
#X obj 273 467 gemhead;
#X obj 273 443 tgl 15 0 empty empty empty 17 7 0 10 -262144 -1 -1 0
1;
#X floatatom 316 802 5 0 0 2 X - -;
#X floatatom 361 802 5 0 0 2 Y - -;
#X obj 273 539 pix_texture;
#X floatatom 402 478 3 0 26 2 index - -;
#X obj 274 834 rectangle 3 3;
#X obj 273 499 pix_buffer_read \$0-cal;
#X obj 722 484 pix_buffer \$0-cal 27;
#X obj 722 241 loadbang;
#X obj 163 91 sel 0 5;
#X obj 163 120 bng 15 250 50 0 empty empty empty 17 7 0 10 -262144
-1 -1;
#X obj 183 120 bng 15 250 50 0 empty empty empty 17 7 0 10 -262144
-1 -1;
#X obj 186 215 random 26;
#X obj 186 243 + 1;
#X obj 186 192 metro 5;
#X obj 186 172 tgl 15 0 empty empty empty 17 7 0 10 -262144 -1 -1 1
1;
#X msg 187 148 1;
#X msg 158 148 0;
#X obj 186 273 spigot;
#X obj 219 249 tgl 15 0 empty empty empty 17 7 0 10 -262144 -1 -1 1
1;
#X obj 274 756 scale 1;
#X floatatom 293 728 5 0 0 0 - - -;
#X obj 352 123 bng 15 250 50 0 empty empty empty 17 7 0 10 -262144
-1 -1;
#X obj 486 125 bng 15 250 50 0 empty empty empty 17 7 0 10 -262144
-1 -1;
#X msg 391 179 0;
#X msg 486 176 1;
#X floatatom 402 409 5 0 0 0 - - -;
#X obj 402 376 coll moji;
#C restore;
#X obj 352 85 sel 0 1 2 3;
#X obj 495 506 expr 360-360/60*$f1;
#X obj 495 475 spigot;
#X obj 528 451 tgl 15 0 empty empty empty 17 7 0 10 -262144 -1 -1 1
1;
#X obj 352 151 t b b b;
#X obj 467 583 line;
#X obj 163 41 inlet;
#X obj 419 33 inlet;
#X obj 584 31 inlet;
#X obj 271 165 loadbang;
#X msg 271 192 1;
#X obj 342 245 list append;
#X obj 425 246 list append;
#X obj 508 247 list append;
#X obj 584 57 unpack s s s;
#X obj 402 347 symbol;
#X obj 806 30 inlet;
#X obj 274 661 rotate 0 0 0 1;
#X floatatom 468 614 5 0 0 0 - - -;
#X floatatom 310 585 5 0 0 0 - - -;
#X floatatom 373 561 5 0 0 0 - - -;
#X msg 373 587 \$1 0 0;
#X obj 274 617 translate 1 1 0 0;
#X obj 752 29 inlet;
#X floatatom 495 541 5 0 0 0 - - -;
#X msg 307 317 0 250;
#X obj 568 425 loadbang;
#X msg 568 452 1;
#X msg 482 322 read alphabet_num.txt;
#X obj 482 298 loadbang;
#X obj 419 58 change;
#X connect 0 0 1 0;
#X connect 1 0 17 0;
#X connect 2 0 0 1;
#X connect 3 0 5 0;
#X connect 3 1 2 0;
#X connect 4 0 3 0;
#X connect 5 0 7 0;
#X connect 5 1 8 1;
#X connect 6 0 0 0;
#X connect 7 0 8 0;
#X connect 8 0 6 0;
#X connect 9 0 16 0;
#X connect 10 0 9 0;
#X connect 11 0 15 1;
#X connect 12 0 15 2;
#X connect 13 0 60 0;
#X connect 14 0 16 1;
#X connect 16 0 13 0;
#X connect 18 0 4 0;
#X connect 19 0 20 0;
#X connect 19 1 21 0;
#X connect 20 0 27 0;
#X connect 21 0 26 0;
#X connect 22 0 23 0;
#X connect 23 0 28 0;
#X connect 24 0 22 0;
#X connect 25 0 24 0;
#X connect 26 0 25 0;
#X connect 27 0 25 0;
#X connect 28 0 14 0;
#X connect 29 0 28 1;
#X connect 30 0 15 0;
#X connect 31 0 30 1;
#X connect 32 0 42 0;
#X connect 33 0 35 0;
#X connect 34 0 29 0;
#X connect 34 0 41 0;
#X connect 35 0 29 0;
#X connect 35 0 41 0;
#X connect 36 0 14 0;
#X connect 37 0 36 0;
#X connect 38 0 32 0;
#X connect 38 1 50 0;
#X connect 38 2 51 0;
#X connect 38 3 33 0;
#X connect 39 0 62 0;
#X connect 40 0 39 0;
#X connect 41 0 40 1;
#X connect 42 0 63 0;
#X connect 42 1 49 0;
#X connect 42 2 34 0;
#X connect 43 0 56 0;
#X connect 44 0 19 0;
#X connect 45 0 68 0;
#X connect 46 0 52 0;
#X connect 47 0 48 0;
#X connect 48 0 29 0;
#X connect 49 0 53 0;
#X connect 50 0 53 0;
#X connect 51 0 53 0;
#X connect 52 0 49 1;
#X connect 52 1 50 1;
#X connect 52 2 51 1;
#X connect 53 0 37 0;
#X connect 54 0 31 0;
#X connect 55 0 30 0;
#X connect 56 0 55 1;
#X connect 57 0 60 1;
#X connect 58 0 59 0;
#X connect 59 0 60 2;
#X connect 60 0 55 0;
#X connect 61 0 58 0;
#X connect 62 0 43 0;
#X connect 63 0 43 0;
#X connect 64 0 65 0;
#X connect 65 0 41 0;
#X connect 66 0 37 0;
#X connect 67 0 66 0;
#X connect 68 0 40 0;
#X connect 68 0 38 0;
