#N canvas 517 254 787 440 10;
#X floatatom 136 93 0 0 0 0 - - -;
#X floatatom 93 93 0 0 0 0 - - -;
#X floatatom 181 93 5 0 0 0 - - -;
#N canvas 471 22 796 372 gemwin 0;
#X obj 102 122 tgl 15 0 \$0-gemstart \$0-gemstart empty 17 7 0 10 -260097
-1 -1 1 1;
#X obj 102 161 r \$0-gemstart;
#X obj 102 182 select 1 0;
#X msg 102 214 create \, 1;
#X msg 177 215 destroy;
#X obj 102 239 t a;
#X obj 318 54 inlet;
#X obj 318 255 gemwin;
#X obj 318 100 t a a;
#X obj 318 287 outlet;
#X obj 350 128 route create destroy;
#X obj 350 150 t b;
#X msg 350 172 1;
#X obj 390 150 t b;
#X msg 390 172 0;
#X obj 350 195 t f;
#X msg 350 219 set \$1;
#X text 118 122 rendering;
#X msg 466 52 color 1 1 1;
#X obj 365 13 loadbang;
#X msg 365 53 dimen 800 200;
#X msg 553 52 title PureDataJapan_Clock;
#X msg 725 50 FSAA 2;
#X connect 1 0 2 0;
#X connect 2 0 3 0;
#X connect 2 1 4 0;
#X connect 3 0 5 0;
#X connect 4 0 5 0;
#X connect 5 0 8 0;
#X connect 6 0 8 0;
#X connect 7 0 9 0;
#X connect 8 0 7 0;
#X connect 8 1 10 0;
#X connect 10 0 11 0;
#X connect 10 1 13 0;
#X connect 11 0 12 0;
#X connect 12 0 15 0;
#X connect 13 0 14 0;
#X connect 14 0 15 0;
#X connect 15 0 16 0;
#X connect 16 0 0 0;
#X connect 18 0 8 0;
#X connect 19 0 20 0;
#X connect 19 0 18 0;
#X connect 19 0 21 0;
#X connect 19 0 22 0;
#X connect 20 0 8 0;
#X connect 21 0 8 0;
#X connect 22 0 8 0;
#X coords 0 -1 1 1 85 40 1 100 100;
#X restore 43 -21 pd gemwin;
#N canvas 772 187 561 548 string_slice 0;
#X msg 125 91 P U R E space D A T A space J A P A N;
#X obj 125 128 list split 5;
#X obj 159 158 list split 5;
#X obj 193 187 list split 5;
#X obj 20 445 pack s s s;
#X obj 20 291 list split 1;
#X obj 54 317 list split 1;
#X obj 88 342 list split 1;
#X obj 122 368 list split 1;
#X obj 168 290 list split 1;
#X obj 202 316 list split 1;
#X obj 236 341 list split 1;
#X obj 270 367 list split 1;
#X obj 322 289 list split 1;
#X obj 356 315 list split 1;
#X obj 390 340 list split 1;
#X obj 424 366 list split 1;
#X obj 137 445 pack s s s;
#X obj 235 445 pack s s s;
#X obj 352 445 pack s s s;
#X obj 455 445 pack s s s;
#X obj 20 484 outlet;
#X obj 137 484 outlet;
#X obj 235 484 outlet;
#X obj 352 484 outlet;
#X obj 455 484 outlet;
#X obj 125 61 loadbang;
#X obj 126 36 inlet;
#X connect 0 0 1 0;
#X connect 1 0 5 0;
#X connect 1 1 2 0;
#X connect 2 0 9 0;
#X connect 2 1 3 0;
#X connect 3 0 13 0;
#X connect 4 0 21 0;
#X connect 5 0 4 0;
#X connect 5 1 6 0;
#X connect 6 0 17 0;
#X connect 6 1 7 0;
#X connect 7 0 18 0;
#X connect 7 1 8 0;
#X connect 8 0 19 0;
#X connect 8 1 20 0;
#X connect 9 0 4 1;
#X connect 9 1 10 0;
#X connect 10 0 17 1;
#X connect 10 1 11 0;
#X connect 11 0 18 1;
#X connect 11 1 12 0;
#X connect 12 0 19 1;
#X connect 12 1 20 1;
#X connect 13 0 4 2;
#X connect 13 1 14 0;
#X connect 14 0 17 2;
#X connect 14 1 15 0;
#X connect 15 0 18 2;
#X connect 15 1 16 0;
#X connect 16 0 19 2;
#X connect 16 1 20 2;
#X connect 17 0 22 0;
#X connect 18 0 23 0;
#X connect 19 0 24 0;
#X connect 20 0 25 0;
#X connect 26 0 0 0;
#X connect 27 0 26 0;
#X restore 296 33 pd string_slice;
#X floatatom 492 35 5 0 0 0 - - -;
#X floatatom 214 242 5 0 0 0 - - -;
#X floatatom 307 242 5 0 0 0 - - -;
#X floatatom 393 242 5 0 0 0 - - -;
#X floatatom 486 242 5 0 0 0 - - -;
#X floatatom 603 242 5 0 0 0 - - -;
#X obj 561 35 unpack f f f f f;
#X obj 543 269 moji_block_sec;
#X obj 45 115 * 5;
#X floatatom 45 93 5 0 0 0 - - -;
#X obj 492 -27 loadbang;
#X obj 296 15 bng 15 250 50 0 empty empty empty 17 7 0 10 -262144 -1
-1;
#X msg 561 11 -12 -6 0 6 12;
#X msg 492 11 0.5;
#N canvas 722 52 560 640 sound 0;
#X obj 125 396 dac~;
#X obj 127 323 hip~ 5;
#X obj 229 81 noise~;
#X obj 229 245 *~ 0;
#X obj 249 218 line;
#X obj 82 193 osc~;
#X obj 82 159 line~;
#X obj 102 -48 r 100msec;
#X obj 288 -29 r sec;
#X floatatom 288 13 5 0 0 0 - - -;
#X floatatom 102 3 5 0 0 0 - - -;
#X obj 102 30 sel 0 5;
#X floatatom 287 85 5 0 0 0 - - -;
#X obj 288 65 + 300;
#X obj 288 43 * 30;
#X msg 82 122 350 \, 70 120;
#X obj -102 161 osc~;
#X obj -102 215 osc~;
#X obj -102 188 *~ 300;
#X obj -102 136 +~;
#X obj 148 195 line~;
#X obj 126 245 *~;
#X obj 82 76 t b b;
#X obj -3 240 line~;
#X obj -25 290 *~;
#X obj -102 -33 t b b;
#X obj -102 -60 bng 15 250 50 0 empty empty empty 17 7 0 10 -262144
-1 -1;
#X floatatom -69 -3 5 0 0 0 - - -;
#X obj -102 -83 sel 0;
#X obj -102 25 f 1000;
#X msg 305 184 0 800;
#X obj -87 84 osc~;
#X floatatom -87 56 5 0 0 0 - - -;
#X obj -102 -164 r sec;
#X floatatom -102 -110 5 0 0 0 - - -;
#X obj -87 108 *~ 300;
#X floatatom -65 163 5 0 0 0 - - -;
#X obj -4 -188 r min;
#X floatatom -4 -109 5 0 0 0 - - -;
#X obj -4 -86 * 40;
#X obj -4 -58 + 300;
#X obj -4 -137 Bucket;
#X obj 186 -128 loadbang;
#X msg 186 -105 \; pd dsp 1;
#X obj 287 130 line;
#X msg 287 107 \$1 200;
#X obj 229 157 bp~ 400 15;
#X msg 250 184 0.5 20;
#X msg 148 158 0.5 \, 0 150;
#X msg -3 203 0.7 \, 0 1000;
#X obj 127 351 *~ 0.7;
#X obj -102 -135 change;
#X obj -4 -162 change;
#X obj 102 -22 change;
#X obj 288 -8 change;
#X connect 1 0 50 0;
#X connect 2 0 46 0;
#X connect 3 0 1 0;
#X connect 4 0 3 1;
#X connect 5 0 21 0;
#X connect 6 0 5 0;
#X connect 7 0 53 0;
#X connect 8 0 54 0;
#X connect 9 0 14 0;
#X connect 10 0 11 0;
#X connect 11 0 30 0;
#X connect 11 0 22 0;
#X connect 11 1 47 0;
#X connect 12 0 45 0;
#X connect 13 0 12 0;
#X connect 14 0 13 0;
#X connect 15 0 6 0;
#X connect 16 0 18 0;
#X connect 17 0 24 0;
#X connect 18 0 17 0;
#X connect 19 0 16 0;
#X connect 20 0 21 1;
#X connect 21 0 1 0;
#X connect 22 0 15 0;
#X connect 22 1 48 0;
#X connect 23 0 24 1;
#X connect 24 0 1 0;
#X connect 25 0 29 0;
#X connect 25 1 49 0;
#X connect 26 0 25 0;
#X connect 27 0 29 1;
#X connect 28 0 26 0;
#X connect 29 0 19 0;
#X connect 30 0 4 0;
#X connect 31 0 35 0;
#X connect 32 0 31 0;
#X connect 33 0 51 0;
#X connect 34 0 28 0;
#X connect 35 0 19 1;
#X connect 36 0 18 1;
#X connect 37 0 52 0;
#X connect 38 0 39 0;
#X connect 39 0 40 0;
#X connect 40 0 32 0;
#X connect 41 0 38 0;
#X connect 42 0 43 0;
#X connect 44 0 46 1;
#X connect 45 0 44 0;
#X connect 46 0 3 0;
#X connect 47 0 4 0;
#X connect 48 0 20 0;
#X connect 49 0 23 0;
#X connect 50 0 0 0;
#X connect 50 0 0 1;
#X connect 51 0 34 0;
#X connect 52 0 41 0;
#X connect 53 0 10 0;
#X connect 54 0 9 0;
#X restore 44 29 pd sound;
#X obj 35 205 s sec;
#X obj 90 205 s 100msec;
#X obj -19 205 s min;
#N canvas 852 244 340 289 times 1;
#X floatatom 45 107 0 0 0 0 - - -;
#X obj 125 25 time;
#X floatatom 181 59 0 0 0 0 - - -;
#X obj 125 -25 tgl 15 0 empty empty empty 17 7 0 10 -262144 -1 -1 1
1;
#X obj 125 1 metro 20;
#X obj 181 105 int;
#X obj 181 83 * 0.01;
#X obj 45 132 - 12;
#X obj 181 132 change;
#X obj 136 132 change;
#X obj 125 -48 loadbang;
#X obj 45 180 outlet;
#X obj 94 180 outlet;
#X obj 140 180 outlet;
#X obj 189 180 outlet;
#X connect 0 0 7 0;
#X connect 1 0 0 0;
#X connect 1 1 12 0;
#X connect 1 2 9 0;
#X connect 1 3 2 0;
#X connect 2 0 6 0;
#X connect 3 0 4 0;
#X connect 4 0 1 0;
#X connect 5 0 8 0;
#X connect 6 0 5 0;
#X connect 7 0 11 0;
#X connect 8 0 14 0;
#X connect 9 0 13 0;
#X connect 10 0 3 0;
#X restore 45 59 pd times;
#X text 492 304 Pure Data Japan Clock;
#X text 511 342 Sei Matsumura (Pure Data Japan);
#X text 493 323 Pure Data Japan 1st Anniversary;
#X text 512 362 14.2.2014;
#X text 511 381 puredatajapan.info;
#X obj 273 269 moji_block;
#X obj 359 269 moji_block;
#X obj 180 269 moji_block;
#X obj 452 269 moji_block;
#X connect 0 0 12 1;
#X connect 0 0 20 0;
#X connect 0 0 29 1;
#X connect 0 0 30 1;
#X connect 0 0 31 1;
#X connect 0 0 32 1;
#X connect 1 0 22 0;
#X connect 1 0 30 5;
#X connect 1 0 32 5;
#X connect 2 0 12 0;
#X connect 2 0 21 0;
#X connect 2 0 29 0;
#X connect 2 0 30 0;
#X connect 2 0 31 0;
#X connect 2 0 32 0;
#X connect 4 0 31 2;
#X connect 4 1 29 2;
#X connect 4 2 30 2;
#X connect 4 3 32 2;
#X connect 4 4 12 2;
#X connect 5 0 12 4;
#X connect 5 0 29 4;
#X connect 5 0 30 4;
#X connect 5 0 31 4;
#X connect 5 0 32 4;
#X connect 6 0 31 3;
#X connect 7 0 29 3;
#X connect 8 0 30 3;
#X connect 9 0 32 3;
#X connect 10 0 12 3;
#X connect 11 0 6 0;
#X connect 11 1 7 0;
#X connect 11 2 8 0;
#X connect 11 3 9 0;
#X connect 11 4 10 0;
#X connect 13 0 29 5;
#X connect 13 0 31 5;
#X connect 14 0 13 0;
#X connect 15 0 17 0;
#X connect 15 0 18 0;
#X connect 16 0 4 0;
#X connect 17 0 11 0;
#X connect 18 0 5 0;
#X connect 23 0 14 0;
#X connect 23 1 1 0;
#X connect 23 2 0 0;
#X connect 23 3 2 0;
